<?xml version="1.0" encoding="UTF-8"?>
<svg version="1.1" xmlns="http://www.w3.org/2000/svg" width="512" height="512">
<path d="M0 0 C130.02 0 260.04 0 394 0 C394 140.25 394 280.5 394 425 C354.36386593 443.11937557 354.36386593 443.11937557 339.61328125 449.6328125 C329.84163443 453.95290899 320.07660808 458.28789542 310.3125 462.625 C308.86621719 463.26731567 308.86621719 463.26731567 307.39071655 463.92260742 C292.90057349 470.35938536 278.43141593 476.84138463 263.9776001 483.35928345 C250.24935921 489.54954743 236.49812905 495.68655996 222.73022461 501.78808594 C222.02841568 502.0994046 221.32660675 502.41072327 220.60353088 502.73147583 C219.25067461 503.3309398 217.89720763 503.92902779 216.54307556 504.52560425 C213.59493986 505.82793955 210.66886738 507.15924546 207.76416016 508.55615234 C206.80687012 509.01586426 205.84958008 509.47557617 204.86328125 509.94921875 C204.05802002 510.34842529 203.25275879 510.74763184 202.4230957 511.15893555 C196.64435768 513.16475444 192.30996989 511.61228054 187.0234375 509.0625 C186.01920746 508.59568817 186.01920746 508.59568817 184.99468994 508.1194458 C183.54520413 507.44429111 182.09809006 506.76402595 180.65313721 506.07922363 C177.52381885 504.59676932 174.38265009 503.1402576 171.24191284 501.68218994 C169.60082645 500.92017723 167.96030984 500.15693632 166.32034302 499.39251709 C158.13189116 495.57967484 149.88562241 491.90319803 141.625 488.25 C140.14398644 487.59371478 138.66303012 486.93730039 137.18212891 486.28076172 C134.09671829 484.91323875 131.01090113 483.54663857 127.92480469 482.18066406 C118.86337418 478.1692383 109.80642004 474.1477222 100.75 470.125 C99.80176361 469.70387939 98.85352722 469.28275879 97.8765564 468.84887695 C83.55999711 462.48927253 69.26474308 456.08366144 54.98419189 449.64364624 C40.99087603 443.33344756 26.9727828 437.08048366 12.93920898 430.86035156 C12.2148616 430.53915848 11.49051422 430.21796539 10.74421692 429.88703918 C9.39447961 429.28865977 8.04454609 428.69072267 6.69438171 428.0933075 C4.44399583 427.09585517 2.20201277 426.10100638 0 425 C0 284.75 0 144.5 0 0 Z " fill="#9CCEFC" transform="translate(59,0)"/>
<path d="M0 0 C65.01 0 130.02 0 197 0 C197 140.25 197 280.5 197 425 C157.36386593 443.11937557 157.36386593 443.11937557 142.61328125 449.6328125 C132.84163443 453.95290899 123.07660808 458.28789542 113.3125 462.625 C111.86621719 463.26731567 111.86621719 463.26731567 110.39071655 463.92260742 C95.90057349 470.35938536 81.43141593 476.84138463 66.9776001 483.35928345 C53.24935921 489.54954743 39.49812905 495.68655996 25.73022461 501.78808594 C25.02817398 502.0994046 24.32612335 502.41072327 23.60279846 502.73147583 C22.2520624 503.33021313 20.90102873 503.92827962 19.54966736 504.52560425 C14.71076347 506.66888251 9.91009733 508.88745255 5.13012695 511.15893555 C3 512 3 512 0 512 C0 446.99 0 381.98 0 315 C1.57418785 318.14837569 2.79682526 321.17371683 3.95336914 324.48291016 C6.73524458 332.36319448 10.06257736 339.19627884 15 346 C15.721875 347.03125 16.44375 348.0625 17.1875 349.125 C24.62593918 357.50838748 34.69688443 362.99180542 45 367 C45.86882812 367.3403125 46.73765625 367.680625 47.6328125 368.03125 C63.86099282 373.39101598 81.87050183 369.87040014 97 363 C111.87326471 355.20545486 122.86737841 342.6654065 128.375 326.75 C128.93727033 324.83927606 129.481026 322.92293523 130 321 C130.22429687 320.278125 130.44859375 319.55625 130.6796875 318.8125 C135.06636655 302.94834564 131.29707574 285.97840582 123.69140625 271.77734375 C113.12310008 254.42384331 98.13454814 245.39031603 79 240 C61.56303766 236.47241991 43.91231248 240.5438395 29 250 C14.01934378 261.09958794 5.27113726 276.04733365 1 294 C0.67 294 0.34 294 0 294 C0 259.35 0 224.7 0 189 C3.38390479 190.6919524 4.73864003 191.6019047 7.25 194.125 C20.41233956 205.86305655 37.7308343 210.10740552 54.96191406 209.16845703 C72.00645468 207.75964857 87.40273401 199.61858549 99.09375 187.3046875 C107.95843873 176.5871335 114.32059547 163.04102698 115 149 C115.061875 148.07445312 115.12375 147.14890625 115.1875 146.1953125 C115.8773362 128.56137473 109.57751509 112.24611482 98 99 C97.49082031 98.39671875 96.98164063 97.7934375 96.45703125 97.171875 C87.02510939 86.831694 71.31755895 79.03882157 57.19140625 78.0625 C56.46824219 78.041875 55.74507813 78.02125 55 78 C53.91589844 77.938125 52.83179688 77.87625 51.71484375 77.8125 C34.61443869 77.24661276 19.07288655 82.31055753 6.3125 93.9375 C5.52488281 94.70964844 4.73726563 95.48179688 3.92578125 96.27734375 C2 98 2 98 0 98 C0 65.66 0 33.32 0 0 Z " fill="#7FC0FC" transform="translate(256,0)"/>
<path d="M0 0 C14.10911569 11.1305246 23.34659366 25.79252767 26.5 43.55859375 C28.73549361 62.58823315 23.69303954 81.15891115 11.8125 96.21875 C0.61134812 109.41462755 -14.86120166 118.46689246 -32.1875 120.21875 C-50.93204249 121.44242933 -67.9681518 117.53696497 -82.5 104.84375 C-84.08126417 103.32133547 -85.64468752 101.78011864 -87.1875 100.21875 C-87.89648438 99.53167969 -88.60546875 98.84460938 -89.3359375 98.13671875 C-101.64066006 85.43126767 -106.48519375 68.28164267 -106.50219727 50.98339844 C-106.18448132 33.42442254 -98.53344432 18.43850068 -86.1875 6.21875 C-85.19169922 5.17267578 -85.19169922 5.17267578 -84.17578125 4.10546875 C-61.60554153 -18.03486164 -25.0154532 -17.83016345 0 0 Z " fill="#F5EFEB" transform="translate(345.1875,89.78125)"/>
<path d="M0 0 C6.8124278 5.73849412 11.59324026 12.30547448 16 20 C16.58394531 20.96486328 16.58394531 20.96486328 17.1796875 21.94921875 C25.23167389 36.3366828 26.09187558 53.4663766 21.90063477 69.1315918 C16.91131624 85.97597849 6.64113672 99.29940094 -8 109 C-23.93947029 117.63670589 -42.55927452 121.09473628 -60.3125 116.4375 C-77.99511708 110.59774424 -92.64676045 99.62187626 -101.5625 83.10546875 C-110.05708681 65.02919027 -111.81473327 45.91285441 -105 27 C-97.95894747 9.99050082 -84.24823635 -2.82039587 -67.67578125 -10.48828125 C-44.50739692 -20.01661785 -19.71519399 -14.38753319 0 0 Z " fill="#F5EFEB" transform="translate(365,253)"/>
<path d="M0 0 C64.84555985 0 64.84555985 0 81.203125 15.0234375 C95.10532444 29.29706975 98.31089468 48.73488608 98.38720703 67.87402344 C98.14201449 85.35707825 92.46624037 100.93072624 80.35546875 113.7109375 C57.49535164 135.92657369 33.70971848 129 0 129 C0 86.43 0 43.86 0 0 Z " fill="#FEFAF5" transform="translate(142,240)"/>
<path d="M0 0 C28.71 0 57.42 0 87 0 C87 9.9 87 19.8 87 30 C77.76 30 68.52 30 59 30 C59 63.99 59 97.98 59 133 C48.77 133 38.54 133 28 133 C28 99.01 28 65.02 28 30 C18.76 30 9.52 30 0 30 C0 20.1 0 10.2 0 0 Z " fill="#FCFAF5" transform="translate(146,77)"/>
<path d="M0 0 C9.28228717 6.79678218 12.89065649 14.16548259 15.42578125 25.35546875 C16.92513815 35.96758369 12.62168159 45.92378361 6.42578125 54.35546875 C0.54688905 60.94040438 -8.39041409 65.88397631 -17.23828125 66.55859375 C-29.02200721 66.7451435 -37.55251883 64.11867943 -46.57421875 56.35546875 C-54.37779867 48.71601767 -57.64360088 38.97508811 -58.07421875 28.16796875 C-57.67262544 18.32245536 -53.37800036 10.3540151 -46.57421875 3.35546875 C-32.31079114 -8.80622863 -15.97856173 -10.20785203 0 0 Z " fill="#80C0FC" transform="translate(326.57421875,113.64453125)"/>
<path d="M0 0 C8.2184602 6.61485821 14.45905322 14.54526612 16.5625 25.0625 C17.5929013 36.35728349 14.25097497 45.98752691 7.5625 55.0625 C-0.00158626 63.3368291 -10.17525445 66.96946213 -21.1875 67.5 C-31.68362545 67.26205257 -39.85308459 62.71151565 -47.30859375 55.53125 C-50.57819553 51.73971179 -52.66065299 47.71931986 -54.4375 43.0625 C-54.80101562 42.11246094 -55.16453125 41.16242188 -55.5390625 40.18359375 C-57.88650182 32.02879369 -57.36784796 23.04838764 -53.75390625 15.3671875 C-48.20723849 5.65640417 -40.76625122 -1.60000837 -29.875 -4.875 C-18.94184147 -7.32500751 -9.8235386 -5.53690358 0 0 Z " fill="#80C0FC" transform="translate(342.4375,273.9375)"/>
<path d="M0 0 C22.0467706 0 22.0467706 0 29.171875 5.75390625 C38.63362101 16.5974419 39.1432716 28.58054834 38.27490234 42.43310547 C37.32649568 51.28883164 33.53465573 58.97786628 27 65 C19 69 19 69 0 69 C0 46.23 0 23.46 0 0 Z " fill="#9CCEFC" transform="translate(172,270)"/>
<path d="M0 0 C0.33 0 0.66 0 1 0 C1 28.71 1 57.42 1 87 C-11.62446466 74.37553534 -16.29740825 58.35333688 -16.31469727 40.76464844 C-16.04569907 25.89812108 -10.45657723 10.76412362 0 0 Z " fill="#FDFAF5" transform="translate(255,100)"/>
</svg>
